<?xml version="1.0" encoding="UTF-8"?>
<svg width="270px" height="60px" viewBox="0 0 270 60" version="1.1" xmlns="http://www.w3.org/2000/svg" xmlns:xlink="http://www.w3.org/1999/xlink">
    <!-- Generator: Sketch 51.3 (57544) - http://www.bohemiancoding.com/sketch -->
    <title>wordmark</title>
    <desc>Created with Sketch.</desc>
    <defs></defs>
    <g id="wordmark" stroke="none" stroke-width="1" fill="none" fill-rule="evenodd">
        <path d="M23.3817826,59.8811337 L13.9950433,59.8811337 C12.0602327,59.8811337 10.2391323,59.5109801 8.5334783,58.7698038 C6.82608823,58.0294964 5.34785473,57.0172217 4.09530573,55.7355863 C2.84449277,54.453082 1.84800888,52.956827 1.10932614,51.2468213 C0.368907362,49.5376844 0,47.7138521 0,45.7761932 L0,8.50536694 L10.2391323,5.94035834 L10.2391323,22.2679588 L16.2128276,22.2679588 L18.7726106,32.5262554 L10.2391323,32.5262554 L10.2391323,45.7761932 C10.2391323,46.8588492 10.6097757,47.7703309 11.3493265,48.5123761 C12.0888773,49.2526835 12.9707829,49.6228371 13.9950433,49.6228371 L20.8219995,49.6228371 L23.3817826,59.8811337 Z M185.972277,59.9999131 L176.585538,59.9999131 C174.650728,59.9999131 172.829627,59.6297594 171.123973,58.8885832 C169.416583,58.1482758 167.937482,57.1360011 166.685801,55.8543657 C165.43412,54.5718614 164.438504,53.0756064 163.699821,51.3656006 C162.959402,49.6564638 162.590495,47.8326315 162.590495,45.8949725 L162.590495,8.6241463 L172.829627,6.0591377 L172.829627,22.3867382 L178.803322,22.3867382 L181.363105,32.6450348 L172.829627,32.6450348 L172.829627,45.8949725 C172.829627,46.9776286 173.199403,47.8891103 173.939821,48.6311555 C174.678504,49.3714628 175.561278,49.7416165 176.585538,49.7416165 L183.411626,49.7416165 L185.972277,59.9999131 Z M254.465962,17.4651714 L251.906179,27.7147789 L245.079223,27.7147789 C244.054962,27.7147789 243.173057,28.0849326 242.433506,28.82524 C241.693955,29.5655473 241.32418,30.4761601 241.32418,31.5579473 L241.32418,59.9998262 L231.084179,59.9998262 L231.084179,31.5579473 C231.084179,29.6220262 231.453087,27.7999316 232.193505,26.0916637 C232.932188,24.3833958 233.928672,22.8888786 235.179485,21.6081121 C236.432034,20.3264767 237.911136,19.3159398 239.617658,18.5756324 C241.32418,17.8353251 243.144412,17.4651714 245.079223,17.4651714 L254.465962,17.4651714 Z M77.2657808,53.6838401 C75.3387823,55.6154167 73.0914855,57.1316565 70.5230222,58.2308218 C67.953691,59.3317249 65.198604,59.8808731 62.2551572,59.8808731 C59.3117105,59.8808731 56.5566235,59.3317249 53.9881602,58.2308218 C51.419697,57.1316565 49.1724001,55.6154167 47.2454017,53.6838401 C45.3184032,51.7522635 43.8071851,49.498323 42.7100112,46.9228875 C41.6137053,44.3474521 41.0651183,41.6104002 41.0651183,38.7134698 C41.0651183,35.7626672 41.6137053,32.9986793 42.7100112,30.4232438 C43.8071851,27.8478083 45.3184032,25.5947368 47.2454017,23.6631602 C49.1724001,21.7315836 51.419697,20.2153437 53.9881602,19.1153095 C56.5566235,18.0152754 59.3117105,17.4652583 62.2551572,17.4652583 C65.198604,17.4652583 67.953691,18.0152754 70.5230222,19.1153095 C73.0914855,20.2153437 75.3387823,21.7315836 77.2657808,23.6631602 L70.4431646,30.504052 C68.1958678,28.2501115 65.4659533,27.1240102 62.2551572,27.1240102 C59.1519953,27.1240102 56.4220808,28.2501115 54.0680178,30.504052 C51.820721,32.7579925 50.6975066,35.4941754 50.6975066,38.7134698 C50.6975066,41.8797609 51.820721,44.5890078 54.0680178,46.8420793 C55.1921003,47.9690496 56.4498574,48.8144945 57.8404211,49.3775452 C59.2327209,49.9414647 60.7040103,50.2229901 62.2551572,50.2229901 C65.5197704,50.2229901 68.2488168,49.0960198 70.4431646,46.8420793 L77.2657808,53.6838401 Z M158.038872,43.6159207 L126.814553,43.6159207 C127.350988,44.8532419 128.128731,45.9558828 129.148652,46.9247122 C130.275338,48.0542892 131.535699,48.9023408 132.930603,49.4671293 C134.326375,50.0319178 135.801137,50.314312 137.356624,50.314312 C139.55618,50.314312 141.514427,49.8033957 143.231365,48.781563 L153.290818,52.8167594 C151.360347,55.0767823 149.025381,56.8389223 146.28939,58.1031796 C143.554267,59.3674369 140.5761,60 137.356624,60 C134.405365,60 131.643334,59.4482451 129.067926,58.3456042 C126.492519,57.2420944 124.240014,55.7223789 122.307807,53.7855889 C120.376469,51.84793 118.860911,49.5887761 117.761133,47.0055204 C116.661355,44.4231337 116.111032,41.6791306 116.111032,38.7726422 C116.111032,35.8140195 116.661355,33.0430803 117.761133,30.4598247 C118.860911,27.877438 120.376469,25.6174152 122.307807,23.6806251 C124.240014,21.7429662 126.492519,20.2232507 129.067926,19.119741 C131.643334,18.0171001 134.405365,17.4653452 137.356624,17.4653452 C140.307015,17.4653452 143.070782,18.0171001 145.646189,19.119741 C148.220728,20.2232507 150.474101,21.7429662 152.406308,23.6806251 C154.336779,25.6174152 155.852337,27.877438 156.952983,30.4598247 C158.052761,33.0430803 158.602216,35.8140195 158.602216,38.7726422 C158.602216,40.4948126 158.414724,42.1092388 158.038872,43.6159207 Z M137.356624,27.1510331 C134.24565,27.1510331 131.509659,28.2806101 129.148652,30.5406329 C128.128731,31.5624656 127.350988,32.6929115 126.814553,33.9302327 L147.898694,33.9302327 C147.362259,32.6929115 146.585384,31.5624656 145.565463,30.5406329 C143.31209,28.2806101 140.5761,27.1510331 137.356624,27.1510331 Z M226.591061,43.6159207 L195.365874,43.6159207 C195.903177,44.8532419 196.68092,45.9558828 197.700841,46.9247122 C198.827527,48.0542892 200.087888,48.9023408 201.482792,49.4671293 C202.877696,50.0319178 204.353325,50.314312 205.908813,50.314312 C208.108368,50.314312 210.066616,49.8033957 211.783554,48.781563 L221.843007,52.8167594 C219.911668,55.0767823 217.577569,56.8389223 214.841579,58.1031796 C212.105588,59.3674369 209.128289,60 205.908813,60 C202.957554,60 200.195523,59.4482451 197.620115,58.3456042 C195.044708,57.2420944 192.791335,55.7223789 190.859996,53.7855889 C188.92779,51.84793 187.412231,49.5887761 186.313321,47.0055204 C185.212675,44.4231337 184.663221,41.6791306 184.663221,38.7726422 C184.663221,35.8140195 185.212675,33.0430803 186.313321,30.4598247 C187.412231,27.877438 188.92779,25.6174152 190.859996,23.6806251 C192.791335,21.7429662 195.044708,20.2232507 197.620115,19.119741 C200.195523,18.0171001 202.957554,17.4653452 205.908813,17.4653452 C208.859203,17.4653452 211.622971,18.0171001 214.198378,19.119741 C216.772917,20.2232507 219.02629,21.7429662 220.957629,23.6806251 C222.888967,25.6174152 224.404526,27.877438 225.504304,30.4598247 C226.60495,33.0430803 227.154405,35.8140195 227.154405,38.7726422 C227.154405,40.4948126 226.966913,42.1092388 226.591061,43.6159207 Z M205.908813,27.1510331 C202.79697,27.1510331 200.06098,28.2806101 197.700841,30.5406329 C196.68092,31.5624656 195.903177,32.6929115 195.365874,33.9302327 L216.450883,33.9302327 C215.914448,32.6929115 215.136705,31.5624656 214.117652,30.5406329 C211.863411,28.2806101 209.128289,27.1510331 205.908813,27.1510331 Z M26.5494382,59.7627888 L26.5494382,17.0752067 L36.8753723,17.0752067 L36.8753723,59.7627888 L26.5494382,59.7627888 Z M26.5494382,10.2456106 L26.5494382,0.000347562141 L36.8753723,0.000347562141 L36.8753723,10.2456106 L26.5494382,10.2456106 Z M120.275866,17.0748591 L98.951284,38.4186502 L120.275866,59.7624413 L105.860702,59.7624413 L91.7007353,45.5897261 L91.7007353,59.7624413 L81.464207,59.7624413 L81.464207,0 L91.7007353,0 L91.7007353,31.1615527 L105.774768,17.0748591 L120.275866,17.0748591 Z M264.844845,16.989967 C267.743155,16.989967 270,19.3429627 270,22.2025303 C270,25.0464575 267.726663,27.4455052 264.814465,27.4455052 C261.916155,27.4455052 259.674066,25.0777381 259.674066,22.2329419 C259.674066,19.3890147 261.931779,16.989967 264.844845,16.989967 Z M264.814465,26.2151352 C267.056553,26.2151352 268.795192,24.3860894 268.795192,22.2025303 C268.795192,20.0189711 267.07131,18.220337 264.844845,18.220337 C262.602756,18.220337 260.89363,20.0493828 260.89363,22.2329419 C260.89363,24.4165011 262.587132,26.2151352 264.814465,26.2151352 Z M267.010548,21.2953931 C267.010548,22.048734 266.69025,22.6022267 266.126039,22.8941789 L267.163319,24.5086051 L265.774492,24.5086051 L265.043621,23.1253077 L264.081858,23.1253077 L264.081858,24.5086051 L262.87705,24.5086051 L262.87705,19.588863 L264.981992,19.588863 C266.277942,19.588863 267.010548,20.2040479 267.010548,21.2953931 Z M264.081858,22.1712497 L264.981992,22.1712497 C265.530579,22.1712497 265.850877,21.8636572 265.850877,21.341445 C265.850877,20.818364 265.530579,20.5264118 264.981992,20.5264118 L264.081858,20.5264118 L264.081858,22.1712497 Z" fill="#FFFFFF"></path>
    </g>
</svg>